<svg width="20" height="20" viewBox="0 0 20 20" fill="none" xmlns="http://www.w3.org/2000/svg">
<path d="M8.33328 7.49995C8.33328 6.57947 9.07947 5.83328 9.99995 5.83328C10.9204 5.83328 11.6666 6.57947 11.6666 7.49995C11.6666 8.42042 10.9204 9.16662 9.99995 9.16662C9.07947 9.16662 8.33328 8.42042 8.33328 7.49995Z" fill="black"/>
<path d="M9.16662 10.4166C7.7859 10.4166 6.66662 11.5359 6.66662 12.9166C6.66662 13.3769 7.03971 13.7499 7.49995 13.7499H12.4999C12.9602 13.7499 13.3333 13.3769 13.3333 12.9166C13.3333 11.5359 12.214 10.4166 10.8333 10.4166H9.16662Z" fill="black"/>
<path fill-rule="evenodd" clip-rule="evenodd" d="M6.28622 2.40218C8.74939 2.04823 11.2505 2.04823 13.7137 2.40218C14.9349 2.57767 15.8758 3.56883 15.9876 4.79754L16.0934 5.96065C16.3379 8.64797 16.3379 11.3519 16.0934 14.0392L15.9876 15.2024C15.8758 16.4311 14.9349 17.4222 13.7137 17.5977C11.2505 17.9517 8.74939 17.9517 6.28622 17.5977C5.06498 17.4222 4.12407 16.4311 4.0123 15.2024L3.90649 14.0392C3.66203 11.3519 3.66203 8.64797 3.90649 5.96066L4.0123 4.79754C4.12407 3.56883 5.06498 2.57767 6.28622 2.40218ZM13.5359 3.63947C11.1906 3.30247 8.80927 3.30247 6.46402 3.63947C5.81586 3.73261 5.31648 4.25866 5.25716 4.91079L5.15135 6.0739C4.91374 8.68587 4.91374 11.314 5.15135 13.926L5.25716 15.0891C5.31648 15.7412 5.81586 16.2673 6.46402 16.3604C8.80926 16.6974 11.1906 16.6974 13.5359 16.3604C14.1841 16.2673 14.6834 15.7412 14.7428 15.0891L14.8486 13.926C15.0862 11.314 15.0862 8.68587 14.8486 6.0739L14.7428 4.91079C14.6834 4.25866 14.1841 3.73261 13.5359 3.63947Z" fill="black"/>
</svg>
