<svg width="18" height="18" viewBox="0 0 18 18" fill="none" xmlns="http://www.w3.org/2000/svg">
<path fill-rule="evenodd" clip-rule="evenodd" d="M4.90155 2.4375C4.46271 2.4375 4.0529 2.65682 3.80948 3.02196L1.11756 7.05983C0.952763 7.30703 0.933055 7.62358 1.06592 7.88931C2.539 10.8355 4.58617 13.4574 7.08709 15.6011L8.40012 16.7265C8.74541 17.0225 9.25491 17.0225 9.60019 16.7265L10.9132 15.6011C13.4142 13.4574 15.4613 10.8355 16.9344 7.88931C17.0673 7.62358 17.0476 7.30703 16.8828 7.05983L14.1908 3.02196C13.9474 2.65682 13.5376 2.4375 13.0988 2.4375H4.90155ZM4.74554 3.64599C4.78031 3.59383 4.83885 3.5625 4.90155 3.5625H6.6564L5.22006 7.00971C5.18698 7.08912 5.16201 7.17101 5.14518 7.25418C4.6173 7.21489 4.08988 7.16752 3.56309 7.11207L2.5088 7.00109L4.74554 3.64599ZM2.45915 8.12708C3.8042 10.5946 5.58032 12.8035 7.70507 14.6484L5.36097 8.3975C4.72172 8.35356 4.08306 8.29802 3.44532 8.23089L2.45915 8.12708ZM6.58877 8.46762L9.00016 14.898L11.4116 8.46762C9.80479 8.54072 8.19553 8.54072 6.58877 8.46762ZM12.6394 8.3975L10.2953 14.6484C12.42 12.8035 14.1961 10.5946 15.5412 8.12708L14.555 8.23089C13.9172 8.29802 13.2786 8.35356 12.6394 8.3975ZM15.4915 7.00109L14.4372 7.11207C13.9104 7.16752 13.383 7.21489 12.8551 7.25418C12.8383 7.17101 12.8133 7.08912 12.7803 7.00971L11.3439 3.5625H13.0988C13.1615 3.5625 13.22 3.59383 13.2548 3.64599L15.4915 7.00109ZM11.6939 7.32754C9.89929 7.42074 8.10103 7.42074 6.30639 7.32754L7.87515 3.5625H10.1252L11.6939 7.32754Z" fill="black"/>
</svg>
