<svg width="24" height="24" viewBox="0 0 24 24" fill="none" xmlns="http://www.w3.org/2000/svg">
<path d="M7.48359 5.25948C6.33916 5.38738 5.4231 6.29063 5.29069 7.42274C4.935 10.4639 4.935 13.5361 5.29069 16.5773C5.4231 17.7094 6.33915 18.6126 7.48359 18.7405C10.4604 19.0732 13.54 19.0732 16.5169 18.7405C17.6613 18.6126 18.5774 17.7094 18.7098 16.5773C18.9653 14.3921 19.0373 12.1909 18.9256 9.99674C18.9227 9.94008 18.9439 9.88481 18.984 9.84469L20.0227 8.80591C20.143 8.68568 20.3484 8.76086 20.3612 8.93042C20.5572 11.5353 20.5034 14.1544 20.1996 16.7515C19.9848 18.5885 18.5099 20.0271 16.6835 20.2313C13.5959 20.5763 10.4045 20.5763 7.31698 20.2313C5.4906 20.0271 4.0157 18.5885 3.80085 16.7515C3.43162 13.5946 3.43162 10.4054 3.80085 7.24849C4.0157 5.41153 5.4906 3.97288 7.31698 3.76876C10.4045 3.42368 13.5959 3.42368 16.6835 3.76876C17.3267 3.84065 17.9264 4.06568 18.4427 4.40732C18.5444 4.47454 18.5544 4.61738 18.4683 4.70353L17.6654 5.50641C17.5997 5.57208 17.4979 5.58313 17.416 5.53926C17.1426 5.39277 16.8388 5.29545 16.5169 5.25948C13.54 4.92677 10.4604 4.92677 7.48359 5.25948Z" fill="white"/>
<path d="M21.0305 6.03034C21.3234 5.73744 21.3234 5.26257 21.0305 4.96968C20.7377 4.67678 20.2628 4.67678 19.9699 4.96968L11.5002 13.4393L9.03054 10.9697C8.73765 10.6768 8.26278 10.6768 7.96988 10.9697C7.67699 11.2626 7.67699 11.7374 7.96988 12.0303L10.9699 15.0303C11.2628 15.3232 11.7376 15.3232 12.0305 15.0303L21.0305 6.03034Z" fill="white"/>
</svg>
