<svg width="20" height="20" viewBox="0 0 20 20" fill="none" xmlns="http://www.w3.org/2000/svg">
<path d="M11.25 8.12504C11.25 7.77987 10.9702 7.50004 10.625 7.50004H5.625C5.27982 7.50004 5 7.77987 5 8.12504C5 8.47022 5.27982 8.75004 5.625 8.75004H10.625C10.9702 8.75004 11.25 8.47022 11.25 8.12504Z" fill="black"/>
<path d="M10.4167 10.625C10.4167 10.2799 10.1368 10 9.79167 10H5.625C5.27982 10 5 10.2799 5 10.625C5 10.9702 5.27982 11.25 5.625 11.25H9.79167C10.1368 11.25 10.4167 10.9702 10.4167 10.625Z" fill="black"/>
<path d="M10.625 12.5C10.9702 12.5 11.25 12.7799 11.25 13.125C11.25 13.4702 10.9702 13.75 10.625 13.75H5.625C5.27982 13.75 5 13.4702 5 13.125C5 12.7799 5.27982 12.5 5.625 12.5H10.625Z" fill="black"/>
<path fill-rule="evenodd" clip-rule="evenodd" d="M5 18.125H15.8333C17.099 18.125 18.125 17.099 18.125 15.8334V11.25C18.125 10.9049 17.8452 10.625 17.5 10.625H14.7917V4.11937C14.7917 2.93321 13.4509 2.24323 12.4857 2.93268L12.3398 3.03687C11.6894 3.50145 10.8084 3.49989 10.1549 3.03313C9.06839 2.25702 7.59828 2.25702 6.51173 3.03313C5.85826 3.49989 4.97725 3.50145 4.32685 3.03687L4.18097 2.93268C3.21575 2.24323 1.875 2.93321 1.875 4.11937V15C1.875 16.7259 3.27411 18.125 5 18.125ZM7.23827 4.0503C7.89021 3.58463 8.77646 3.58463 9.42839 4.0503C10.5134 4.82532 11.9783 4.83124 13.0664 4.05404L13.2122 3.94985C13.3501 3.85135 13.5417 3.94992 13.5417 4.11937V15.8334C13.5417 16.2085 13.6318 16.5625 13.7915 16.875H5C3.96447 16.875 3.125 16.0356 3.125 15V4.11937C3.125 3.94992 3.31654 3.85135 3.45442 3.94985L3.6003 4.05404C4.68838 4.83124 6.15325 4.82532 7.23827 4.0503ZM14.7917 15.8334V11.875H16.875V15.8334C16.875 16.4087 16.4086 16.875 15.8333 16.875C15.258 16.875 14.7917 16.4087 14.7917 15.8334Z" fill="black"/>
</svg>
