<svg width="314" height="317" viewBox="0 0 314 317" fill="none" xmlns="http://www.w3.org/2000/svg">
<circle cx="157.5" cy="146.5" r="146.5" fill="#49A14D"/>
<g filter="url(#filter0_dddd_135_366)">
<g filter="url(#filter1_dddd_135_366)">
<mask id="path-2-inside-1_135_366" fill="white">
<path fill-rule="evenodd" clip-rule="evenodd" d="M73.0656 42.3377L45.2633 123.08C42.9446 133.284 40.3127 143.536 41.3119 156.674C42.3144 169.857 45.626 184.318 51.26 197.787C58.1417 214.24 68.5526 229.338 82.5498 238.743C84.0013 239.718 85.595 240.687 87.5168 241.459C95.1575 245.562 103.968 248.433 113.517 248.659C114.16 248.674 114.798 248.685 115.432 248.691C116.943 248.817 118.487 248.904 120.061 248.945C129.755 249.2 140.591 247.734 151.964 243.063C161.867 239.519 169.757 234.616 176.038 229.288C188.906 218.369 194.118 205.358 196.903 199.213C202.431 182.024 200.22 162.466 193.923 144.476C189.132 130.787 181.951 117.915 173.906 107.526C165.89 97.1752 156.948 89.2032 148.569 85.393L75.0819 43.4688L75.2163 43.0782L73.0656 42.3377Z"/>
</mask>
<path d="M45.2633 123.08L-650.637 -116.542L-663.611 -78.8636L-672.441 -40.0048L45.2633 123.08ZM73.0656 42.3377L312.686 -653.563L-383.214 -893.183L-622.835 -197.284L73.0656 42.3377ZM41.3119 156.674L775.193 100.862L775.193 100.862L41.3119 156.674ZM51.26 197.787L730.256 -86.2211L51.26 197.787ZM82.5498 238.743L-327.921 849.652L-327.921 849.652L82.5498 238.743ZM87.5168 241.459L435.695 -406.976L399.779 -426.261L361.952 -441.462L87.5168 241.459ZM113.517 248.659L130.932 -487.135L130.931 -487.135L113.517 248.659ZM115.432 248.691L176.449 -484.775L149.597 -487.009L122.654 -487.273L115.432 248.691ZM120.061 248.945L139.389 -486.801L139.384 -486.801L120.061 248.945ZM151.964 243.063L-96.0594 -449.887L-111.981 -444.188L-127.624 -437.764L151.964 243.063ZM176.038 229.288L652.212 790.495L652.212 790.495L176.038 229.288ZM196.903 199.213L867.304 502.953L884.669 464.625L897.553 424.567L196.903 199.213ZM193.923 144.476L888.602 -98.6645L888.602 -98.6646L193.923 144.476ZM173.906 107.526L755.806 -343.126L755.806 -343.127L173.906 107.526ZM148.569 85.393L-216.142 724.676L-186.825 741.401L-156.101 755.372L148.569 85.393ZM75.0819 43.4688L-620.82 -196.15L-819.385 380.526L-289.628 682.752L75.0819 43.4688ZM75.2163 43.0782L771.118 282.697L1010.74 -413.203L314.836 -652.823L75.2163 43.0782ZM741.164 362.702L768.966 281.959L-622.835 -197.284L-650.637 -116.542L741.164 362.702ZM775.193 100.862C784.019 216.92 756.287 315.563 762.968 286.164L-672.441 -40.0048C-670.398 -48.9939 -703.393 70.1517 -692.569 212.486L775.193 100.862ZM730.256 -86.2211C755.697 -25.3963 770.362 37.3418 775.193 100.862L-692.569 212.486C-685.733 302.372 -664.445 394.031 -627.736 481.795L730.256 -86.2211ZM493.02 -372.167C636.176 -275.98 702.064 -153.622 730.256 -86.2211L-627.736 481.795C-585.78 582.101 -499.071 734.656 -327.921 849.652L493.02 -372.167ZM-327.921 849.652C-306.602 863.976 -256.694 896.34 -186.919 924.38L361.952 -441.462C427.884 -414.967 474.604 -384.54 493.02 -372.167L-327.921 849.652ZM130.931 -487.135C259.424 -484.094 363.302 -445.848 435.695 -406.976L-260.662 889.894C-172.987 936.971 -51.4877 980.96 96.1037 984.453L130.931 -487.135ZM122.654 -487.273C125.439 -487.246 128.199 -487.2 130.932 -487.135L96.1024 984.453C100.122 984.548 104.157 984.616 108.209 984.656L122.654 -487.273ZM54.4151 982.158C69.3176 983.397 84.7718 984.272 100.738 984.691L139.384 -486.801C152.201 -486.465 164.567 -485.764 176.449 -484.775L54.4151 982.158ZM100.734 984.691C201.019 987.326 315.119 971.705 431.552 923.891L-127.624 -437.764C-33.937 -476.238 58.4908 -488.926 139.389 -486.801L100.734 984.691ZM-300.136 -331.92C-242.887 -380.495 -174.285 -421.888 -96.0594 -449.887L399.987 936.014C498.02 900.926 582.402 849.728 652.212 790.495L-300.136 -331.92ZM-473.499 -104.528C-483.269 -82.9622 -430.605 -221.219 -300.136 -331.92L652.212 790.495C808.418 657.958 871.505 493.679 867.304 502.953L-473.499 -104.528ZM897.553 424.567C968.704 203.351 926.73 10.2717 888.602 -98.6645L-500.756 387.616C-526.291 314.661 -563.842 160.697 -503.748 -26.1419L897.553 424.567ZM888.602 -98.6646C857.023 -188.889 811.225 -271.567 755.806 -343.126L-407.995 558.178C-447.322 507.397 -478.759 450.462 -500.756 387.616L888.602 -98.6646ZM755.806 -343.127C709.637 -402.742 612.802 -512.026 453.238 -584.587L-156.101 755.372C-234.31 719.807 -290.027 677.115 -324.299 647.015C-360.423 615.29 -387.782 584.278 -407.995 558.179L755.806 -343.127ZM513.279 -553.89L439.792 -595.814L-289.628 682.752L-216.142 724.676L513.279 -553.89ZM-620.685 -196.54L-620.82 -196.15L770.983 283.087L771.118 282.697L-620.685 -196.54ZM-166.555 738.239L-164.404 738.979L314.836 -652.823L312.686 -653.563L-166.555 738.239Z" fill="url(#paint0_linear_135_366)" mask="url(#path-2-inside-1_135_366)"/>
</g>
<path d="M72.7793 45.5732L146.437 244.731L149.849 243.593L153.261 242.456L72.7793 45.5732Z" fill="#9D805A"/>
<path d="M114.075 83.311L101.298 117.041L103.584 122.668L114.075 83.311Z" fill="#9D805A"/>
<path d="M69.0752 100.597L101.14 117.113L103.207 122.825L69.0752 100.597Z" fill="#9D805A"/>
<path d="M135.926 108.24L112.519 146.73L115.335 152.697L135.926 108.24Z" fill="#9D805A"/>
<path d="M65.4189 131.934L112.256 146.836L114.727 152.919L65.4189 131.934Z" fill="#9D805A"/>
<path d="M165.139 140.091L129.393 191.249L133.823 199.231L165.139 140.091Z" fill="#9D805A"/>
<path d="M56.3184 171.118L128.967 191.368L132.865 199.502L56.3184 171.118Z" fill="#9D805A"/>
</g>
<g filter="url(#filter2_dddd_135_366)">
<mask id="path-11-inside-2_135_366" fill="white">
<path fill-rule="evenodd" clip-rule="evenodd" d="M245.647 137.705L208.322 161.028C204.083 164.363 199.704 167.615 195.843 173.202C191.969 178.807 188.605 185.674 186.492 192.896C183.912 201.718 183.185 211.142 185.741 219.449C186.006 220.311 186.33 221.216 186.85 222.149C188.579 226.27 191.177 230.278 194.929 233.466C195.181 233.68 195.433 233.892 195.685 234.1C196.249 234.64 196.84 235.176 197.457 235.703C201.257 238.949 206.073 241.877 212.143 243.695C217.26 245.487 222.01 246.083 226.254 245.985C234.95 245.786 241.257 242.265 244.366 240.707C252.156 235.615 257.613 227.064 260.927 217.816C263.448 210.779 264.746 203.294 264.894 196.523C265.04 189.777 264.044 183.684 261.924 179.44L246.088 138.812L246.268 138.699L245.647 137.705Z"/>
</mask>
<path d="M208.322 161.028L-181.696 -463.138L-215.49 -442.021L-246.807 -417.379L208.322 161.028ZM245.647 137.705L869.812 -252.314L479.794 -876.477L-144.371 -486.46L245.647 137.705ZM195.843 173.202L801.299 591.674L801.299 591.674L195.843 173.202ZM186.492 192.896L892.903 399.486L186.492 192.896ZM185.741 219.449L-517.712 435.897L185.741 219.449ZM186.85 222.149L865.509 -62.664L849.733 -100.254L829.903 -135.873L186.85 222.149ZM194.929 233.466L671.513 -327.394L671.512 -327.395L194.929 233.466ZM195.685 234.1L704.69 -297.512L685.228 -316.146L664.456 -333.307L195.685 234.1ZM197.457 235.703L675.498 -323.916L675.494 -323.919L197.457 235.703ZM212.143 243.695L455.481 -450.915L439.521 -456.506L423.321 -461.358L212.143 243.695ZM226.254 245.985L243.131 981.792L243.131 981.792L226.254 245.985ZM244.366 240.707L574.216 898.654L611.832 879.796L647.054 856.773L244.366 240.707ZM260.927 217.816L953.807 466.036L953.807 466.036L260.927 217.816ZM264.894 196.523L1000.72 212.503L1000.72 212.502L264.894 196.523ZM261.924 179.44L-423.823 446.736L-411.565 478.183L-396.481 508.377L261.924 179.44ZM246.088 138.812L-143.933 -485.352L-661.16 -162.152L-439.659 406.108L246.088 138.812ZM246.268 138.699L636.289 762.862L1260.45 372.843L870.433 -251.32L246.268 138.699ZM598.34 785.193L635.664 761.87L-144.371 -486.46L-181.696 -463.138L598.34 785.193ZM801.299 591.674C731.49 692.675 643.744 754.941 663.451 739.434L-246.807 -417.379C-235.577 -426.215 -332.082 -357.444 -409.613 -245.27L801.299 591.674ZM892.903 399.486C872.411 469.558 841.162 533.999 801.299 591.674L-409.613 -245.27C-457.225 -176.384 -495.202 -98.2105 -519.919 -13.6941L892.903 399.486ZM889.194 3.00146C942.319 175.654 915.836 321.07 892.903 399.486L-519.919 -13.6941C-548.012 82.3667 -575.948 246.631 -517.712 435.897L889.194 3.00146ZM-517.712 435.897C-510.408 459.636 -492.295 515.345 -456.203 580.17L829.903 -135.873C864.955 -72.9129 882.42 -19.0142 889.194 3.00146L-517.712 435.897ZM671.512 -327.395C772.984 -241.171 832.085 -142.307 865.509 -62.664L-491.809 506.961C-454.926 594.847 -390.629 701.727 -281.655 794.326L671.512 -327.395ZM664.456 -333.307C666.84 -331.337 669.192 -329.366 671.513 -327.394L-281.656 794.325C-278.829 796.727 -275.973 799.121 -273.086 801.506L664.456 -333.307ZM-313.319 765.711C-303.049 775.545 -292.144 785.447 -280.58 795.324L675.494 -323.919C685.823 -315.095 695.548 -306.265 704.69 -297.512L-313.319 765.711ZM-280.584 795.322C-207.878 857.429 -113.903 914.342 0.965122 948.748L423.321 -461.358C526.049 -430.589 610.392 -379.53 675.498 -323.916L-280.584 795.322ZM209.377 -489.821C288.427 -491.634 372.257 -480.07 455.481 -450.915L-31.1947 938.304C62.2623 971.045 155.593 983.8 243.131 981.792L209.377 -489.821ZM-85.4841 -417.241C-103.726 -408.096 30.1403 -485.71 209.376 -489.821L243.131 981.792C439.759 977.282 586.241 892.626 574.216 898.654L-85.4841 -417.241ZM647.054 856.773C834.241 734.42 917.997 565.994 953.807 466.036L-431.954 -30.4041C-402.77 -111.866 -329.93 -263.19 -158.322 -375.36L647.054 856.773ZM953.807 466.036C983.675 382.661 998.893 296.625 1000.72 212.503L-470.933 180.544C-469.4 109.963 -456.78 38.8958 -431.954 -30.404L953.807 466.036ZM1000.72 212.502C1002.22 143.461 996.675 3.31992 920.328 -149.497L-396.481 508.377C-435.875 429.524 -453.04 358.852 -461.199 311.168C-469.773 261.055 -471.719 216.718 -470.933 180.544L1000.72 212.502ZM947.671 -87.8561L931.835 -128.484L-439.659 406.108L-423.823 446.736L947.671 -87.8561ZM-143.753 -485.464L-143.933 -485.352L636.108 762.975L636.289 762.862L-143.753 -485.464ZM-378.518 527.723L-377.897 528.718L870.433 -251.32L869.812 -252.314L-378.518 527.723Z" fill="url(#paint1_linear_135_366)" mask="url(#path-11-inside-2_135_366)"/>
</g>
<path d="M244.496 138.93L209.694 242.247L213.019 243.392L244.496 138.93Z" fill="#9D805A"/>
<path d="M248.787 167.441L232.729 176.806L231.819 179.802L248.787 167.441Z" fill="#9D805A"/>
<path d="M225.151 159.768L232.637 176.784L231.612 179.742L225.151 159.768Z" fill="#9D805A"/>
<path d="M246.682 184.018L227.215 192.276L226.322 195.277L246.682 184.018Z" fill="#9D805A"/>
<path d="M216.195 174.105L227.09 192.229L226.048 195.181L216.195 174.105Z" fill="#9D805A"/>
<path d="M243.607 206.437L219.163 217.1L218.022 220.929L243.607 206.437Z" fill="#9D805A"/>
<path d="M205.509 194.062L219.017 217.057L217.69 220.825L205.509 194.062Z" fill="#9D805A"/>
<defs>
<filter id="filter0_dddd_135_366" x="21.0942" y="38.3379" width="198.962" height="280.635" filterUnits="userSpaceOnUse" color-interpolation-filters="sRGB">
<feFlood flood-opacity="0" result="BackgroundImageFix"/>
<feColorMatrix in="SourceAlpha" type="matrix" values="0 0 0 0 0 0 0 0 0 0 0 0 0 0 0 0 0 0 127 0" result="hardAlpha"/>
<feOffset dy="3"/>
<feGaussianBlur stdDeviation="3.5"/>
<feColorMatrix type="matrix" values="0 0 0 0 0 0 0 0 0 0 0 0 0 0 0 0 0 0 0.1 0"/>
<feBlend mode="normal" in2="BackgroundImageFix" result="effect1_dropShadow_135_366"/>
<feColorMatrix in="SourceAlpha" type="matrix" values="0 0 0 0 0 0 0 0 0 0 0 0 0 0 0 0 0 0 127 0" result="hardAlpha"/>
<feOffset dy="12"/>
<feGaussianBlur stdDeviation="6"/>
<feColorMatrix type="matrix" values="0 0 0 0 0 0 0 0 0 0 0 0 0 0 0 0 0 0 0.09 0"/>
<feBlend mode="normal" in2="effect1_dropShadow_135_366" result="effect2_dropShadow_135_366"/>
<feColorMatrix in="SourceAlpha" type="matrix" values="0 0 0 0 0 0 0 0 0 0 0 0 0 0 0 0 0 0 127 0" result="hardAlpha"/>
<feOffset dy="28"/>
<feGaussianBlur stdDeviation="8.5"/>
<feColorMatrix type="matrix" values="0 0 0 0 0 0 0 0 0 0 0 0 0 0 0 0 0 0 0.05 0"/>
<feBlend mode="normal" in2="effect2_dropShadow_135_366" result="effect3_dropShadow_135_366"/>
<feColorMatrix in="SourceAlpha" type="matrix" values="0 0 0 0 0 0 0 0 0 0 0 0 0 0 0 0 0 0 127 0" result="hardAlpha"/>
<feOffset dy="50"/>
<feGaussianBlur stdDeviation="10"/>
<feColorMatrix type="matrix" values="0 0 0 0 0 0 0 0 0 0 0 0 0 0 0 0 0 0 0.01 0"/>
<feBlend mode="normal" in2="effect3_dropShadow_135_366" result="effect4_dropShadow_135_366"/>
<feBlend mode="normal" in="SourceGraphic" in2="effect4_dropShadow_135_366" result="shape"/>
</filter>
<filter id="filter1_dddd_135_366" x="0.0942383" y="38.3379" width="207.962" height="277.635" filterUnits="userSpaceOnUse" color-interpolation-filters="sRGB">
<feFlood flood-opacity="0" result="BackgroundImageFix"/>
<feColorMatrix in="SourceAlpha" type="matrix" values="0 0 0 0 0 0 0 0 0 0 0 0 0 0 0 0 0 0 127 0" result="hardAlpha"/>
<feOffset dx="-1" dy="3"/>
<feGaussianBlur stdDeviation="3.5"/>
<feColorMatrix type="matrix" values="0 0 0 0 0 0 0 0 0 0 0 0 0 0 0 0 0 0 0.05 0"/>
<feBlend mode="normal" in2="BackgroundImageFix" result="effect1_dropShadow_135_366"/>
<feColorMatrix in="SourceAlpha" type="matrix" values="0 0 0 0 0 0 0 0 0 0 0 0 0 0 0 0 0 0 127 0" result="hardAlpha"/>
<feOffset dx="-5" dy="12"/>
<feGaussianBlur stdDeviation="6.5"/>
<feColorMatrix type="matrix" values="0 0 0 0 0 0 0 0 0 0 0 0 0 0 0 0 0 0 0.04 0"/>
<feBlend mode="normal" in2="effect1_dropShadow_135_366" result="effect2_dropShadow_135_366"/>
<feColorMatrix in="SourceAlpha" type="matrix" values="0 0 0 0 0 0 0 0 0 0 0 0 0 0 0 0 0 0 127 0" result="hardAlpha"/>
<feOffset dx="-12" dy="26"/>
<feGaussianBlur stdDeviation="8.5"/>
<feColorMatrix type="matrix" values="0 0 0 0 0 0 0 0 0 0 0 0 0 0 0 0 0 0 0.03 0"/>
<feBlend mode="normal" in2="effect2_dropShadow_135_366" result="effect3_dropShadow_135_366"/>
<feColorMatrix in="SourceAlpha" type="matrix" values="0 0 0 0 0 0 0 0 0 0 0 0 0 0 0 0 0 0 127 0" result="hardAlpha"/>
<feOffset dx="-21" dy="47"/>
<feGaussianBlur stdDeviation="10"/>
<feColorMatrix type="matrix" values="0 0 0 0 0 0 0 0 0 0 0 0 0 0 0 0 0 0 0.01 0"/>
<feBlend mode="normal" in2="effect3_dropShadow_135_366" result="effect4_dropShadow_135_366"/>
<feBlend mode="normal" in="SourceGraphic" in2="effect4_dropShadow_135_366" result="shape"/>
</filter>
<filter id="filter2_dddd_135_366" x="163.151" y="135.705" width="102.756" height="126.291" filterUnits="userSpaceOnUse" color-interpolation-filters="sRGB">
<feFlood flood-opacity="0" result="BackgroundImageFix"/>
<feColorMatrix in="SourceAlpha" type="matrix" values="0 0 0 0 0 0 0 0 0 0 0 0 0 0 0 0 0 0 127 0" result="hardAlpha"/>
<feOffset dx="-1" dy="1"/>
<feGaussianBlur stdDeviation="1"/>
<feColorMatrix type="matrix" values="0 0 0 0 0 0 0 0 0 0 0 0 0 0 0 0 0 0 0.16 0"/>
<feBlend mode="normal" in2="BackgroundImageFix" result="effect1_dropShadow_135_366"/>
<feColorMatrix in="SourceAlpha" type="matrix" values="0 0 0 0 0 0 0 0 0 0 0 0 0 0 0 0 0 0 127 0" result="hardAlpha"/>
<feOffset dx="-3" dy="2"/>
<feGaussianBlur stdDeviation="2"/>
<feColorMatrix type="matrix" values="0 0 0 0 0 0 0 0 0 0 0 0 0 0 0 0 0 0 0.14 0"/>
<feBlend mode="normal" in2="effect1_dropShadow_135_366" result="effect2_dropShadow_135_366"/>
<feColorMatrix in="SourceAlpha" type="matrix" values="0 0 0 0 0 0 0 0 0 0 0 0 0 0 0 0 0 0 127 0" result="hardAlpha"/>
<feOffset dx="-8" dy="5"/>
<feGaussianBlur stdDeviation="3"/>
<feColorMatrix type="matrix" values="0 0 0 0 0 0 0 0 0 0 0 0 0 0 0 0 0 0 0.08 0"/>
<feBlend mode="normal" in2="effect2_dropShadow_135_366" result="effect3_dropShadow_135_366"/>
<feColorMatrix in="SourceAlpha" type="matrix" values="0 0 0 0 0 0 0 0 0 0 0 0 0 0 0 0 0 0 127 0" result="hardAlpha"/>
<feOffset dx="-14" dy="9"/>
<feGaussianBlur stdDeviation="3.5"/>
<feColorMatrix type="matrix" values="0 0 0 0 0 0 0 0 0 0 0 0 0 0 0 0 0 0 0.02 0"/>
<feBlend mode="normal" in2="effect3_dropShadow_135_366" result="effect4_dropShadow_135_366"/>
<feBlend mode="normal" in="SourceGraphic" in2="effect4_dropShadow_135_366" result="shape"/>
</filter>
<linearGradient id="paint0_linear_135_366" x1="73.1411" y1="42.3087" x2="150.437" y2="243.673" gradientUnits="userSpaceOnUse">
<stop stop-color="#4C6F43"/>
<stop offset="1" stop-color="#49A14D"/>
</linearGradient>
<linearGradient id="paint1_linear_135_366" x1="245.687" y1="137.718" x2="211.334" y2="243.444" gradientUnits="userSpaceOnUse">
<stop stop-color="#4C6F43"/>
<stop offset="1" stop-color="#49A14D"/>
</linearGradient>
</defs>
</svg>
