<svg width="20" height="20" viewBox="0 0 20 20" fill="none" xmlns="http://www.w3.org/2000/svg">
<path d="M10.0002 15.2084C9.65498 15.2084 9.37516 15.4882 9.37516 15.8334C9.37516 16.1786 9.65498 16.4584 10.0002 16.4584H15.0002C15.8056 16.4584 16.4585 15.8055 16.4585 15.0001V5.00008C16.4585 4.19467 15.8056 3.54175 15.0002 3.54175H10.0002C9.65498 3.54175 9.37516 3.82157 9.37516 4.16675C9.37516 4.51193 9.65498 4.79175 10.0002 4.79175L15.0002 4.79175C15.1152 4.79175 15.2085 4.88502 15.2085 5.00008L15.2085 15.0001C15.2085 15.1151 15.1152 15.2084 15.0002 15.2084H10.0002Z" fill="black"/>
<path fill-rule="evenodd" clip-rule="evenodd" d="M12.0861 11.9711C12.6614 11.9711 13.1277 11.5047 13.1277 10.9294V9.06233C13.1277 8.48704 12.6614 8.02067 12.0861 8.02067L8.24223 8.02067C8.23679 7.95948 8.2311 7.89831 8.22516 7.83715L8.18014 7.37392C8.11144 6.66716 7.36094 6.2439 6.72059 6.55078C5.35873 7.20344 4.12587 8.09657 3.08129 9.1872L2.99863 9.27351C2.61179 9.6774 2.61179 10.3144 2.99863 10.7182L3.08129 10.8046C4.12587 11.8952 5.35874 12.7883 6.72059 13.441C7.36094 13.7479 8.11144 13.3246 8.18014 12.6178L8.22516 12.1546C8.2311 12.0935 8.23679 12.0323 8.24223 11.9711H12.0861ZM7.66275 10.7211C7.44078 10.7211 7.24454 10.8372 7.13357 11.0134C7.07952 11.0992 7.04569 11.1993 7.03896 11.3072C7.02385 11.5496 7.00453 11.7918 6.98102 12.0337L6.96795 12.1681C6.10458 11.7232 5.3028 11.1691 4.58214 10.52C4.39518 10.3516 4.21368 10.1768 4.03798 9.99588C4.89093 9.1175 5.88059 8.38399 6.96795 7.82362L6.98102 7.95807C7.00453 8.19997 7.02385 8.44217 7.03896 8.68457C7.05951 9.014 7.33268 9.27067 7.66275 9.27067H11.8777V10.7211H7.66275Z" fill="black"/>
</svg>
