<svg width="24" height="24" viewBox="0 0 24 24" fill="none" xmlns="http://www.w3.org/2000/svg">
<path fill-rule="evenodd" clip-rule="evenodd" d="M7.3445 4.01727C10.4136 3.67426 13.5864 3.67426 16.6555 4.01727C18.3682 4.20869 19.7499 5.5581 19.9511 7.27759C20.318 10.4152 20.318 13.5849 19.9511 16.7225C19.7499 18.442 18.3682 19.7914 16.6555 19.9829C13.5864 20.3259 10.4136 20.3259 7.3445 19.9829C5.63178 19.7914 4.25002 18.442 4.04891 16.7225C3.68194 13.5849 3.68194 10.4152 4.04891 7.27759C4.25002 5.5581 5.63178 4.20869 7.3445 4.01727Z" fill="black"/>
<path d="M15.25 11C15.6642 11 16 11.3358 16 11.75C16 12.1642 15.6642 12.5 15.25 12.5H9.75C9.33579 12.5 9 12.1642 9 11.75C9 11.3358 9.33579 11 9.75 11H15.25Z" fill="white"/>
</svg>
