<svg width="20" height="20" viewBox="0 0 20 20" fill="none" xmlns="http://www.w3.org/2000/svg">
<path fill-rule="evenodd" clip-rule="evenodd" d="M10.0001 2.56599L8.15605 4.47391C7.95978 4.67698 7.68947 4.79166 7.40704 4.79166H4.79172V7.40698C4.79172 7.6894 4.67705 7.95972 4.47397 8.15599L2.56605 9.99999L4.47397 11.844C4.67705 12.0403 4.79172 12.3106 4.79172 12.593V15.2083H7.40704C7.68947 15.2083 7.95978 15.323 8.15605 15.5261L10.0001 17.434L11.8441 15.5261C12.0403 15.323 12.3106 15.2083 12.5931 15.2083H15.2084V12.593C15.2084 12.3106 15.3231 12.0403 15.5261 11.844L17.4341 9.99999L15.5261 8.156C15.3231 7.95973 15.2084 7.68941 15.2084 7.40699V4.79166H12.5931C12.3106 4.79166 12.0403 4.67698 11.8441 4.47391L10.0001 2.56599ZM9.25104 1.5423C9.66052 1.11863 10.3396 1.11863 10.7491 1.5423L12.6814 3.54166H15.4167C15.992 3.54166 16.4584 4.00803 16.4584 4.58333V7.31861L18.4578 9.25098C18.8814 9.66046 18.8814 10.3395 18.4578 10.749L16.4584 12.6814V15.4167C16.4584 15.992 15.992 16.4583 15.4167 16.4583H12.6814L10.7491 18.4577C10.3396 18.8814 9.66052 18.8814 9.25104 18.4577L7.31866 16.4583H4.58339C4.00809 16.4583 3.54172 15.992 3.54172 15.4167V12.6814L1.54236 10.749C1.11869 10.3395 1.11869 9.66046 1.54236 9.25098L3.54172 7.3186V4.58333C3.54172 4.00803 4.00809 3.54166 4.58339 3.54166H7.31866L9.25104 1.5423Z" fill="black"/>
<path fill-rule="evenodd" clip-rule="evenodd" d="M6.04172 9.99999C6.04172 7.81387 7.81393 6.04166 10.0001 6.04166C12.1862 6.04166 13.9584 7.81387 13.9584 9.99999C13.9584 12.1861 12.1862 13.9583 10.0001 13.9583C7.81393 13.9583 6.04172 12.1861 6.04172 9.99999ZM10.0001 7.29166C8.50428 7.29166 7.29172 8.50422 7.29172 9.99999C7.29172 11.4958 8.50428 12.7083 10.0001 12.7083C11.4958 12.7083 12.7084 11.4958 12.7084 9.99999C12.7084 8.50422 11.4958 7.29166 10.0001 7.29166Z" fill="black"/>
</svg>
