<svg width="20" height="20" viewBox="0 0 20 20" fill="none" xmlns="http://www.w3.org/2000/svg">
<path fill-rule="evenodd" clip-rule="evenodd" d="M5.62516 6.24992C5.62516 4.29391 7.21082 2.70825 9.16683 2.70825C11.1228 2.70825 12.7085 4.29391 12.7085 6.24992C12.7085 8.20593 11.1228 9.79158 9.16683 9.79158C7.21082 9.79158 5.62516 8.20593 5.62516 6.24992ZM9.16683 3.95825C7.90118 3.95825 6.87516 4.98427 6.87516 6.24992C6.87516 7.51557 7.90118 8.54158 9.16683 8.54158C10.4325 8.54158 11.4585 7.51557 11.4585 6.24992C11.4585 4.98427 10.4325 3.95825 9.16683 3.95825Z" fill="black"/>
<path fill-rule="evenodd" clip-rule="evenodd" d="M2.7085 14.1666C2.7085 12.4407 4.10761 11.0416 5.8335 11.0416H6.11755C6.2713 11.0416 6.42407 11.0659 6.57022 11.1136L7.29148 11.3491C8.51006 11.747 9.8236 11.747 11.0422 11.3491L11.7634 11.1136C11.9096 11.0659 12.0624 11.0416 12.2161 11.0416H12.5002C14.2261 11.0416 15.6252 12.4407 15.6252 14.1666V15.1568C15.6252 15.7845 15.1703 16.3197 14.5508 16.4208C10.9851 17.003 7.34858 17.003 3.78289 16.4208C3.1634 16.3197 2.7085 15.7845 2.7085 15.1568V14.1666ZM5.8335 12.2916C4.79796 12.2916 3.9585 13.1311 3.9585 14.1666V15.1568C3.9585 15.1719 3.96942 15.1848 3.9843 15.1872C7.4166 15.7476 10.9171 15.7476 14.3494 15.1872C14.3642 15.1848 14.3752 15.1719 14.3752 15.1568V14.1666C14.3752 13.1311 13.5357 12.2916 12.5002 12.2916H12.2161C12.1941 12.2916 12.1723 12.2951 12.1514 12.3019L11.4302 12.5374C9.95949 13.0176 8.37417 13.0176 6.90348 12.5374L6.18222 12.3019C6.16134 12.2951 6.13952 12.2916 6.11755 12.2916H5.8335Z" fill="black"/>
<path d="M16.2502 5.20825C16.5953 5.20825 16.8752 5.48807 16.8752 5.83325V7.29158H18.3335C18.6787 7.29158 18.9585 7.57141 18.9585 7.91658C18.9585 8.26176 18.6787 8.54158 18.3335 8.54158H16.8752V9.99992C16.8752 10.3451 16.5953 10.6249 16.2502 10.6249C15.905 10.6249 15.6252 10.3451 15.6252 9.99992V8.54158H14.1668C13.8217 8.54158 13.5418 8.26176 13.5418 7.91658C13.5418 7.57141 13.8217 7.29158 14.1668 7.29158H15.6252V5.83325C15.6252 5.48807 15.905 5.20825 16.2502 5.20825Z" fill="black"/>
</svg>
