<svg width="196" height="229" viewBox="0 0 196 229" fill="none" xmlns="http://www.w3.org/2000/svg">
<path d="M61.25 216.75C68.0155 216.75 73.5 211.265 73.5 204.5C73.5 197.735 68.0155 192.25 61.25 192.25C54.4845 192.25 49 197.735 49 204.5C49 211.265 54.4845 216.75 61.25 216.75Z" fill="#387B3B"/>
<path d="M147 216.75C153.765 216.75 159.25 211.265 159.25 204.5C159.25 197.735 153.765 192.25 147 192.25C140.235 192.25 134.75 197.735 134.75 204.5C134.75 211.265 140.235 216.75 147 216.75Z" fill="#387B3B"/>
<path d="M171.5 75.8753H35.6475L30.625 50.1503C30.3386 48.746 29.5689 47.4865 28.4498 46.5912C27.3306 45.6959 25.9329 45.2214 24.5 45.2503H0V57.5003H19.4775L42.875 175.1C43.1614 176.505 43.9311 177.764 45.0502 178.659C46.1694 179.555 47.5671 180.029 49 180H159.25V167.75H54.0225L49 143.25H159.25C160.666 143.285 162.05 142.828 163.167 141.957C164.283 141.086 165.064 139.854 165.375 138.473L177.625 83.3478C177.83 82.439 177.825 81.4953 177.611 80.5887C177.397 79.682 176.978 78.8362 176.388 78.1156C175.797 77.3951 175.05 76.8187 174.203 76.4305C173.356 76.0423 172.431 75.8524 171.5 75.8753ZM154.35 131H46.6725L38.0975 88.1253H163.844L154.35 131Z" fill="#387B3B"/>
<g filter="url(#filter0_dddd_156_286)">
<mask id="path-4-inside-1_156_286" fill="white">
<path fill-rule="evenodd" clip-rule="evenodd" d="M72.0136 8.85293L63.0102 35.0001C62.2593 38.3047 61.407 41.6246 61.7306 45.8792C62.0552 50.1482 63.1277 54.8311 64.9521 59.193C67.1807 64.5209 70.5521 69.4103 75.0849 72.4559C75.5549 72.7717 76.0711 73.0854 76.6934 73.3355C79.1677 74.6641 82.021 75.594 85.1133 75.6672C85.3215 75.6721 85.5281 75.6755 85.7333 75.6776C86.2225 75.7183 86.7225 75.7464 87.2324 75.7598C90.3716 75.8422 93.8807 75.3675 97.5636 73.8551C100.771 72.7072 103.326 71.1197 105.36 69.394C109.527 65.8582 111.215 61.6449 112.116 59.6546C113.907 54.0884 113.191 47.7548 111.152 41.929C109.6 37.4958 107.275 33.3276 104.669 29.9632C102.073 26.6113 99.1775 24.0297 96.4642 22.7958L72.6665 9.21923L72.7101 9.09276L72.0136 8.85293Z"/>
</mask>
<path d="M63.0102 35.0001L-632.89 -204.622L-645.864 -166.943L-654.694 -128.084L63.0102 35.0001ZM72.0136 8.85293L311.633 -687.048L-384.266 -926.667L-623.887 -230.769L72.0136 8.85293ZM61.7306 45.8792L795.611 -9.93276L795.611 -9.93288L61.7306 45.8792ZM64.9521 59.193L743.948 -224.815L64.9521 59.193ZM75.0849 72.4559L485.555 -538.453L75.0849 72.4559ZM76.6934 73.3355L424.872 -575.099L388.956 -594.385L351.129 -609.585L76.6934 73.3355ZM85.1133 75.6672L102.528 -660.127L102.527 -660.127L85.1133 75.6672ZM85.7333 75.6776L146.75 -657.789L119.899 -660.023L92.9559 -660.287L85.7333 75.6776ZM87.2324 75.7598L106.56 -659.986L106.556 -659.987L87.2324 75.7598ZM97.5636 73.8551L-150.46 -619.096L-166.381 -613.397L-182.025 -606.973L97.5636 73.8551ZM105.36 69.394L581.534 630.602L581.534 630.602L105.36 69.394ZM112.116 59.6546L782.518 363.395L799.883 325.067L812.767 285.009L112.116 59.6546ZM111.152 41.929L805.83 -201.211L805.83 -201.212L111.152 41.929ZM104.669 29.9632L686.57 -420.689L686.57 -420.689L104.669 29.9632ZM96.4642 22.7958L-268.246 662.078L-238.93 678.804L-208.205 692.775L96.4642 22.7958ZM72.6665 9.21923L-623.234 -230.401L-821.802 346.275L-292.044 648.502L72.6665 9.21923ZM72.7101 9.09276L768.611 248.713L1008.23 -447.188L312.33 -686.808L72.7101 9.09276ZM758.911 274.622L767.914 248.475L-623.887 -230.769L-632.89 -204.622L758.911 274.622ZM795.611 -9.93288C805.113 115.009 775.602 220.583 780.714 198.085L-654.694 -128.084C-651.084 -143.974 -682.299 -31.7597 -672.15 101.691L795.611 -9.93288ZM743.948 -224.815C773.199 -154.883 790.103 -82.367 795.611 -9.93276L-672.15 101.691C-665.992 182.663 -646.944 264.545 -614.044 343.201L743.948 -224.815ZM485.555 -538.453C638.176 -435.908 711.103 -303.34 743.948 -224.815L-614.044 343.201C-576.741 432.382 -497.072 574.728 -335.386 683.365L485.555 -538.453ZM-335.386 683.365C-315.048 697.03 -266.218 728.739 -197.742 756.256L351.129 -609.585C418.36 -582.568 466.158 -551.487 485.555 -538.453L-335.386 683.365ZM102.527 -660.127C237.477 -656.933 347.312 -616.745 424.872 -575.099L-271.485 721.77C-188.977 766.073 -73.435 808.121 67.6997 811.461L102.527 -660.127ZM92.9559 -660.287C96.1658 -660.255 99.3567 -660.202 102.528 -660.127L67.6984 811.461C71.2862 811.546 74.8904 811.607 78.5107 811.642L92.9559 -660.287ZM24.7165 809.144C38.597 810.299 53.0072 811.115 67.9093 811.506L106.556 -659.987C120.438 -659.622 133.848 -658.862 146.75 -657.789L24.7165 809.144ZM67.9048 811.506C161.636 813.968 268.409 799.339 377.152 754.683L-182.025 -606.973C-80.6474 -648.604 19.1074 -662.284 106.56 -659.986L67.9048 811.506ZM-370.814 -491.814C-309.318 -543.992 -235.381 -588.7 -150.46 -619.096L345.587 766.806C436.923 734.114 515.97 686.232 581.534 630.602L-370.814 -491.814ZM-558.285 -244.085C-566.173 -226.676 -509.985 -373.73 -370.814 -491.814L581.534 630.602C729.039 505.447 788.602 349.965 782.518 363.395L-558.285 -244.085ZM812.767 285.009C880.18 75.4148 839.701 -104.44 805.83 -201.211L-583.527 285.069C-613.32 199.95 -652.367 32.762 -588.534 -165.7L812.767 285.009ZM805.83 -201.212C777.491 -282.18 736.549 -356.155 686.57 -420.689L-477.232 480.616C-521.999 422.81 -558.291 357.172 -583.527 285.069L805.83 -201.212ZM686.57 -420.689C645.821 -473.305 555.032 -577.199 401.134 -647.184L-208.205 692.775C-289.247 655.922 -347.892 611.238 -385.061 578.594C-424.083 544.324 -454.309 510.215 -477.231 480.616L686.57 -420.689ZM461.175 -616.487L437.377 -630.063L-292.044 648.502L-268.246 662.078L461.175 -616.487ZM-623.191 -230.528L-623.234 -230.401L768.567 248.84L768.611 248.713L-623.191 -230.528ZM-167.606 704.754L-166.91 704.994L312.33 -686.808L311.633 -687.048L-167.606 704.754Z" fill="#007045" mask="url(#path-4-inside-1_156_286)"/>
</g>
<path d="M71.9155 9.90625L95.7685 74.4005L96.8735 74.0321L97.9784 73.6638L71.9155 9.90625Z" fill="white"/>
<path d="M85.3032 22.125L81.1654 33.0478L81.9057 34.8702L85.3032 22.125Z" fill="white"/>
<path d="M70.7222 27.7256L81.106 33.0741L81.7752 34.9238L70.7222 27.7256Z" fill="white"/>
<path d="M92.3691 30.2002L84.789 42.6646L85.7009 44.5969L92.3691 30.2002Z" fill="white"/>
<path d="M69.542 37.8706L84.7094 42.6965L85.5098 44.6663L69.542 37.8706Z" fill="white"/>
<path d="M101.833 40.5171L90.2567 57.0838L91.6912 59.6687L101.833 40.5171Z" fill="white"/>
<path d="M66.585 50.563L90.1111 57.1209L91.3736 59.7548L66.585 50.563Z" fill="white"/>
<mask id="path-13-inside-2_156_286" fill="white">
<path fill-rule="evenodd" clip-rule="evenodd" d="M127.905 39.7435L115.817 47.2963C114.445 48.3764 113.027 49.4297 111.776 51.2388C110.522 53.054 109.432 55.2776 108.748 57.6165C107.913 60.4734 107.677 63.5253 108.505 66.2154C108.591 66.4944 108.696 66.7875 108.864 67.0895C109.424 68.4242 110.265 69.7221 111.48 70.7544C111.562 70.8239 111.644 70.8924 111.725 70.9597C111.908 71.1347 112.099 71.3081 112.299 71.4789C113.53 72.5301 115.089 73.4782 117.055 74.0669C118.712 74.6474 120.25 74.8403 121.624 74.8088C124.44 74.7442 126.483 73.604 127.49 73.0993C130.012 71.4505 131.78 68.6813 132.853 65.6864C133.669 63.4075 134.09 60.9837 134.137 58.791C134.185 56.6065 133.862 54.6332 133.176 53.2588L128.047 40.102L128.106 40.0655L127.905 39.7435Z"/>
</mask>
<path d="M115.817 47.2963L-274.2 -576.869L-307.995 -555.752L-339.311 -531.11L115.817 47.2963ZM127.905 39.7435L752.069 -350.275L362.051 -974.439L-262.113 -584.422L127.905 39.7435ZM111.776 51.2388L717.232 469.711L717.232 469.711L111.776 51.2388ZM108.748 57.6165L815.159 264.207L108.748 57.6165ZM108.505 66.2154L-594.948 282.663L108.505 66.2154ZM108.864 67.0895L787.523 -217.723L771.747 -255.313L751.917 -290.932L108.864 67.0895ZM111.48 70.7544L588.064 -490.105L588.063 -490.106L111.48 70.7544ZM111.725 70.9597L620.73 -460.652L601.268 -479.286L580.496 -496.447L111.725 70.9597ZM112.299 71.4789L590.34 -488.14L590.336 -488.143L112.299 71.4789ZM117.055 74.0669L360.393 -620.543L344.433 -626.134L328.233 -630.986L117.055 74.0669ZM121.624 74.8088L138.502 810.615L138.502 810.615L121.624 74.8088ZM127.49 73.0993L457.34 731.047L494.956 712.189L530.178 689.166L127.49 73.0993ZM132.853 65.6864L825.733 313.906L825.733 313.906L132.853 65.6864ZM134.137 58.791L869.964 74.7706L869.964 74.7701L134.137 58.791ZM133.176 53.2588L-552.571 320.555L-540.313 352.002L-525.229 382.196L133.176 53.2588ZM128.047 40.102L-261.973 -584.061L-779.201 -260.862L-557.7 307.398L128.047 40.102ZM128.106 40.0655L518.126 664.229L1142.29 274.209L752.27 -349.953L128.106 40.0655ZM505.835 671.462L517.922 663.909L-262.113 -584.422L-274.2 -576.869L505.835 671.462ZM717.232 469.711C644.813 574.489 554.105 638.954 570.946 625.703L-339.311 -531.11C-325.216 -542.201 -418.76 -475.63 -493.68 -367.233L717.232 469.711ZM815.159 264.207C793.239 339.162 759.715 408.245 717.232 469.711L-493.68 -367.233C-538.672 -302.137 -574.374 -228.607 -597.663 -148.974L815.159 264.207ZM811.958 -150.233C866.81 28.037 839.837 179.825 815.159 264.207L-597.663 -148.974C-624.011 -58.8781 -651.456 99.0136 -594.948 282.663L811.958 -150.233ZM-594.948 282.663C-587.823 305.819 -569.929 360.916 -534.189 425.111L751.917 -290.932C787.321 -227.341 805.005 -172.831 811.958 -150.233L-594.948 282.663ZM588.063 -490.106C692.072 -401.726 752.93 -300.152 787.523 -217.723L-569.795 351.902C-534.082 437.001 -471.541 541.171 -365.103 631.615L588.063 -490.106ZM580.496 -496.447C583.05 -494.337 585.573 -492.223 588.064 -490.105L-365.104 631.614C-362.449 633.87 -359.763 636.121 -357.046 638.366L580.496 -496.447ZM-397.279 602.571C-387.39 612.039 -376.885 621.579 -365.738 631.101L590.336 -488.143C601.083 -478.963 611.206 -469.77 620.73 -460.652L-397.279 602.571ZM-365.742 631.098C-295.606 691.01 -204.887 745.944 -94.1231 779.12L328.233 -630.986C435.066 -598.988 522.665 -545.949 590.34 -488.14L-365.742 631.098ZM104.747 -660.998C186.667 -662.877 273.709 -650.91 360.393 -620.543L-126.283 768.677C-36.2855 800.205 53.8328 812.557 138.502 810.615L104.747 -660.998ZM-202.36 -584.848C-218.5 -576.757 -80.369 -656.752 104.747 -660.998L138.502 810.615C329.25 806.24 471.466 723.965 457.34 731.047L-202.36 -584.848ZM530.178 689.166C712.098 570.256 792.164 407.612 825.733 313.906L-560.027 -182.534C-528.604 -270.249 -452.073 -427.355 -275.198 -542.968L530.178 689.166ZM825.733 313.906C853.897 235.29 868.236 154.314 869.964 74.7706L-601.689 42.8115C-600.057 -32.3468 -586.558 -108.475 -560.027 -182.533L825.733 313.906ZM869.964 74.7701C871.364 10.2901 866.493 -125.731 791.58 -275.678L-525.229 382.196C-565.34 301.908 -583.032 229.488 -591.526 179.846C-600.435 127.774 -602.524 81.2671 -601.689 42.8119L869.964 74.7701ZM818.923 -214.037L813.794 -227.194L-557.7 307.398L-552.571 320.555L818.923 -214.037ZM-261.915 -584.098L-261.973 -584.061L518.068 664.265L518.126 664.229L-261.915 -584.098ZM-496.26 429.762L-496.059 430.084L752.27 -349.953L752.069 -350.275L-496.26 429.762Z" fill="#568658" mask="url(#path-13-inside-2_156_286)"/>
<path d="M127.529 40.1416L116.259 73.5992L117.336 73.97L127.529 40.1416Z" fill="white"/>
<path d="M128.931 49.3711L123.73 52.404L123.436 53.3741L128.931 49.3711Z" fill="white"/>
<path d="M121.262 46.8901L123.687 52.4004L123.355 53.3584L121.262 46.8901Z" fill="white"/>
<path d="M128.238 54.7354L121.934 57.4096L121.645 58.3815L128.238 54.7354Z" fill="white"/>
<path d="M118.375 51.5344L121.903 57.4034L121.565 58.3595L118.375 51.5344Z" fill="white"/>
<path d="M127.239 62L119.323 65.4533L118.953 66.693L127.239 62Z" fill="white"/>
<path d="M114.905 57.9976L119.279 65.4442L118.849 66.6643L114.905 57.9976Z" fill="white"/>
<defs>
<filter id="filter0_dddd_156_286" x="20.6602" y="4.85303" width="100.478" height="137.916" filterUnits="userSpaceOnUse" color-interpolation-filters="sRGB">
<feFlood flood-opacity="0" result="BackgroundImageFix"/>
<feColorMatrix in="SourceAlpha" type="matrix" values="0 0 0 0 0 0 0 0 0 0 0 0 0 0 0 0 0 0 127 0" result="hardAlpha"/>
<feOffset dx="-1" dy="3"/>
<feGaussianBlur stdDeviation="3.5"/>
<feColorMatrix type="matrix" values="0 0 0 0 0 0 0 0 0 0 0 0 0 0 0 0 0 0 0.05 0"/>
<feBlend mode="normal" in2="BackgroundImageFix" result="effect1_dropShadow_156_286"/>
<feColorMatrix in="SourceAlpha" type="matrix" values="0 0 0 0 0 0 0 0 0 0 0 0 0 0 0 0 0 0 127 0" result="hardAlpha"/>
<feOffset dx="-5" dy="12"/>
<feGaussianBlur stdDeviation="6.5"/>
<feColorMatrix type="matrix" values="0 0 0 0 0 0 0 0 0 0 0 0 0 0 0 0 0 0 0.04 0"/>
<feBlend mode="normal" in2="effect1_dropShadow_156_286" result="effect2_dropShadow_156_286"/>
<feColorMatrix in="SourceAlpha" type="matrix" values="0 0 0 0 0 0 0 0 0 0 0 0 0 0 0 0 0 0 127 0" result="hardAlpha"/>
<feOffset dx="-12" dy="26"/>
<feGaussianBlur stdDeviation="8.5"/>
<feColorMatrix type="matrix" values="0 0 0 0 0 0 0 0 0 0 0 0 0 0 0 0 0 0 0.03 0"/>
<feBlend mode="normal" in2="effect2_dropShadow_156_286" result="effect3_dropShadow_156_286"/>
<feColorMatrix in="SourceAlpha" type="matrix" values="0 0 0 0 0 0 0 0 0 0 0 0 0 0 0 0 0 0 127 0" result="hardAlpha"/>
<feOffset dx="-21" dy="47"/>
<feGaussianBlur stdDeviation="10"/>
<feColorMatrix type="matrix" values="0 0 0 0 0 0 0 0 0 0 0 0 0 0 0 0 0 0 0.01 0"/>
<feBlend mode="normal" in2="effect3_dropShadow_156_286" result="effect4_dropShadow_156_286"/>
<feBlend mode="normal" in="SourceGraphic" in2="effect4_dropShadow_156_286" result="shape"/>
</filter>
</defs>
</svg>
