<svg width="20" height="20" viewBox="0 0 20 20" fill="none" xmlns="http://www.w3.org/2000/svg">
<path fill-rule="evenodd" clip-rule="evenodd" d="M11.2981 4.61182C10.5726 3.91569 9.42718 3.91569 8.7017 4.61182L4.84634 8.31126C4.75188 8.40191 4.68834 8.51998 4.66472 8.64874C4.20295 11.167 4.16886 13.745 4.5639 16.2745L4.65767 16.8749H7.13805V11.6988C7.13805 11.3537 7.41787 11.0738 7.76305 11.0738H12.2367C12.5819 11.0738 12.8617 11.3537 12.8617 11.6988V16.8749H15.3421L15.4359 16.2745C15.8309 13.745 15.7968 11.167 15.3351 8.64874C15.3114 8.51998 15.2479 8.40191 15.1534 8.31127L11.2981 4.61182ZM7.83625 3.70989C9.04537 2.54967 10.9544 2.54967 12.1635 3.70989L16.0189 7.40933C16.3027 7.68166 16.4936 8.0364 16.5646 8.42329C17.0517 11.0796 17.0876 13.7991 16.6709 16.4674L16.5203 17.432C16.458 17.8309 16.1144 18.1249 15.7107 18.1249H12.2367C11.8916 18.1249 11.6117 17.8451 11.6117 17.4999V12.3238H8.38805V17.4999C8.38805 17.8451 8.10822 18.1249 7.76305 18.1249H4.28911C3.88537 18.1249 3.5418 17.8309 3.4795 17.432L3.32887 16.4674C2.91216 13.7991 2.94812 11.0796 3.43523 8.42329C3.50617 8.0364 3.69707 7.68166 3.98088 7.40933L7.83625 3.70989Z" fill="black"/>
</svg>
