<svg width="340" height="340" viewBox="0 0 340 340" fill="none" xmlns="http://www.w3.org/2000/svg">
<g filter="url(#filter0_dddd_132_158)">
<mask id="path-1-inside-1_132_158" fill="white">
<path fill-rule="evenodd" clip-rule="evenodd" d="M52.2282 16.4792L11.0609 136.036C7.62746 151.146 3.73041 166.326 5.2099 185.78C6.69439 205.3 11.598 226.712 19.9403 246.656C30.1302 271.018 45.5458 293.374 66.2718 307.3C68.421 308.744 70.7809 310.179 73.6265 311.322C84.9402 317.397 97.9865 321.649 112.126 321.984C113.078 322.006 114.023 322.022 114.961 322.031C117.198 322.217 119.484 322.346 121.816 322.407C136.169 322.784 152.215 320.613 169.054 313.698C183.719 308.449 195.402 301.19 204.701 293.3C223.756 277.133 231.473 257.867 235.596 248.767C243.782 223.316 240.508 194.356 231.184 167.718C224.09 147.447 213.458 128.388 201.544 113.005C189.674 97.6784 176.434 85.8741 164.027 80.2322L55.2138 18.1541L55.4129 17.5758L52.2282 16.4792Z"/>
</mask>
<path fill-rule="evenodd" clip-rule="evenodd" d="M52.2282 16.4792L11.0609 136.036C7.62746 151.146 3.73041 166.326 5.2099 185.78C6.69439 205.3 11.598 226.712 19.9403 246.656C30.1302 271.018 45.5458 293.374 66.2718 307.3C68.421 308.744 70.7809 310.179 73.6265 311.322C84.9402 317.397 97.9865 321.649 112.126 321.984C113.078 322.006 114.023 322.022 114.961 322.031C117.198 322.217 119.484 322.346 121.816 322.407C136.169 322.784 152.215 320.613 169.054 313.698C183.719 308.449 195.402 301.19 204.701 293.3C223.756 277.133 231.473 257.867 235.596 248.767C243.782 223.316 240.508 194.356 231.184 167.718C224.09 147.447 213.458 128.388 201.544 113.005C189.674 97.6784 176.434 85.8741 164.027 80.2322L55.2138 18.1541L55.4129 17.5758L52.2282 16.4792Z" stroke="#568658" stroke-width="1472" mask="url(#path-1-inside-1_132_158)"/>
<path fill-rule="evenodd" clip-rule="evenodd" d="M52.2282 16.4792L11.0609 136.036C7.62746 151.146 3.73041 166.326 5.2099 185.78C6.69439 205.3 11.598 226.712 19.9403 246.656C30.1302 271.018 45.5458 293.374 66.2718 307.3C68.421 308.744 70.7809 310.179 73.6265 311.322C84.9402 317.397 97.9865 321.649 112.126 321.984C113.078 322.006 114.023 322.022 114.961 322.031C117.198 322.217 119.484 322.346 121.816 322.407C136.169 322.784 152.215 320.613 169.054 313.698C183.719 308.449 195.402 301.19 204.701 293.3C223.756 277.133 231.473 257.867 235.596 248.767C243.782 223.316 240.508 194.356 231.184 167.718C224.09 147.447 213.458 128.388 201.544 113.005C189.674 97.6784 176.434 85.8741 164.027 80.2322L55.2138 18.1541L55.4129 17.5758L52.2282 16.4792Z" stroke="black" stroke-opacity="0.2" stroke-width="1472" mask="url(#path-1-inside-1_132_158)"/>
</g>
<path d="M51.7988 21.2954L160.865 316.192L165.918 314.508L170.97 312.824L51.7988 21.2954Z" fill="#9D805A"/>
<path d="M51.7988 21.2954L160.865 316.192L165.918 314.508L170.97 312.824L51.7988 21.2954Z" stroke="#568658" stroke-width="0.1"/>
<path d="M51.7988 21.2954L160.865 316.192L165.918 314.508L170.97 312.824L51.7988 21.2954Z" stroke="black" stroke-opacity="0.2" stroke-width="0.1"/>
<path d="M112.959 77.1787L94.0389 127.123L97.4242 135.456L112.959 77.1787Z" fill="#9D805A"/>
<path d="M112.959 77.1787L94.0389 127.123L97.4242 135.456L112.959 77.1787Z" stroke="#568658" stroke-width="0.1"/>
<path d="M112.959 77.1787L94.0389 127.123L97.4242 135.456L112.959 77.1787Z" stroke="black" stroke-opacity="0.2" stroke-width="0.1"/>
<path d="M46.3164 102.772L93.7957 127.228L96.8556 135.686L46.3164 102.772Z" fill="#9D805A"/>
<path d="M46.3164 102.772L93.7957 127.228L96.8556 135.686L46.3164 102.772Z" stroke="#568658" stroke-width="0.1"/>
<path d="M46.3164 102.772L93.7957 127.228L96.8556 135.686L46.3164 102.772Z" stroke="black" stroke-opacity="0.2" stroke-width="0.1"/>
<path d="M145.309 114.092L110.649 171.085L114.818 179.92L145.309 114.092Z" fill="#9D805A"/>
<path d="M145.309 114.092L110.649 171.085L114.818 179.92L145.309 114.092Z" stroke="#568658" stroke-width="0.1"/>
<path d="M145.309 114.092L110.649 171.085L114.818 179.92L145.309 114.092Z" stroke="black" stroke-opacity="0.2" stroke-width="0.1"/>
<path d="M40.9185 149.157L110.27 171.223L113.93 180.23L40.9185 149.157Z" fill="#9D805A"/>
<path d="M40.9185 149.157L110.27 171.223L113.93 180.23L40.9185 149.157Z" stroke="#568658" stroke-width="0.1"/>
<path d="M40.9185 149.157L110.27 171.223L113.93 180.23L40.9185 149.157Z" stroke="black" stroke-opacity="0.2" stroke-width="0.1"/>
<path d="M188.562 161.255L135.633 237.006L142.192 248.825L188.562 161.255Z" fill="#9D805A"/>
<path d="M188.562 161.255L135.633 237.006L142.192 248.825L188.562 161.255Z" stroke="#568658" stroke-width="0.1"/>
<path d="M188.562 161.255L135.633 237.006L142.192 248.825L188.562 161.255Z" stroke="black" stroke-opacity="0.2" stroke-width="0.1"/>
<path d="M27.4219 207.194L134.994 237.18L140.766 249.223L27.4219 207.194Z" fill="#9D805A"/>
<path d="M27.4219 207.194L134.994 237.18L140.766 249.223L27.4219 207.194Z" stroke="#568658" stroke-width="0.1"/>
<path d="M27.4219 207.194L134.994 237.18L140.766 249.223L27.4219 207.194Z" stroke="black" stroke-opacity="0.2" stroke-width="0.1"/>
<mask id="path-9-inside-2_132_158" fill="white">
<path fill-rule="evenodd" clip-rule="evenodd" d="M307.788 157.716L252.52 192.251C246.244 197.19 239.76 202.006 234.042 210.278C228.305 218.578 223.324 228.745 220.197 239.44C216.377 252.503 215.3 266.457 219.085 278.758C219.477 280.033 219.957 281.373 220.726 282.754C223.287 288.857 227.134 294.792 232.688 299.512C233.062 299.83 233.436 300.143 233.809 300.451C234.644 301.251 235.518 302.044 236.432 302.825C242.059 307.631 249.19 311.966 258.178 314.658C265.754 317.312 272.788 318.194 279.073 318.05C291.949 317.755 301.288 312.541 305.892 310.234C317.426 302.694 325.507 290.033 330.413 276.339C334.146 265.919 336.069 254.836 336.287 244.81C336.504 234.821 335.029 225.799 331.89 219.515L308.441 159.356L308.708 159.189L307.788 157.716Z"/>
</mask>
<path fill-rule="evenodd" clip-rule="evenodd" d="M307.788 157.716L252.52 192.251C246.244 197.19 239.76 202.006 234.042 210.278C228.305 218.578 223.324 228.745 220.197 239.44C216.377 252.503 215.3 266.457 219.085 278.758C219.477 280.033 219.957 281.373 220.726 282.754C223.287 288.857 227.134 294.792 232.688 299.512C233.062 299.83 233.436 300.143 233.809 300.451C234.644 301.251 235.518 302.044 236.432 302.825C242.059 307.631 249.19 311.966 258.178 314.658C265.754 317.312 272.788 318.194 279.073 318.05C291.949 317.755 301.288 312.541 305.892 310.234C317.426 302.694 325.507 290.033 330.413 276.339C334.146 265.919 336.069 254.836 336.287 244.81C336.504 234.821 335.029 225.799 331.89 219.515L308.441 159.356L308.708 159.189L307.788 157.716Z" stroke="#007045" stroke-width="1472" mask="url(#path-9-inside-2_132_158)"/>
<path fill-rule="evenodd" clip-rule="evenodd" d="M307.788 157.716L252.52 192.251C246.244 197.19 239.76 202.006 234.042 210.278C228.305 218.578 223.324 228.745 220.197 239.44C216.377 252.503 215.3 266.457 219.085 278.758C219.477 280.033 219.957 281.373 220.726 282.754C223.287 288.857 227.134 294.792 232.688 299.512C233.062 299.83 233.436 300.143 233.809 300.451C234.644 301.251 235.518 302.044 236.432 302.825C242.059 307.631 249.19 311.966 258.178 314.658C265.754 317.312 272.788 318.194 279.073 318.05C291.949 317.755 301.288 312.541 305.892 310.234C317.426 302.694 325.507 290.033 330.413 276.339C334.146 265.919 336.069 254.836 336.287 244.81C336.504 234.821 335.029 225.799 331.89 219.515L308.441 159.356L308.708 159.189L307.788 157.716Z" stroke="black" stroke-opacity="0.2" stroke-width="1472" mask="url(#path-9-inside-2_132_158)"/>
<path d="M306.079 159.517L254.546 312.5L259.47 314.196L306.079 159.517Z" fill="#9D805A"/>
<path d="M306.079 159.517L254.546 312.5L259.47 314.196L306.079 159.517Z" stroke="#007045" stroke-width="0.1"/>
<path d="M306.079 159.517L254.546 312.5L259.47 314.196L306.079 159.517Z" stroke="black" stroke-opacity="0.2" stroke-width="0.1"/>
<path d="M312.449 201.739L288.671 215.607L287.324 220.043L312.449 201.739Z" fill="#9D805A"/>
<path d="M312.449 201.739L288.671 215.607L287.324 220.043L312.449 201.739Z" stroke="#007045" stroke-width="0.1"/>
<path d="M312.449 201.739L288.671 215.607L287.324 220.043L312.449 201.739Z" stroke="black" stroke-opacity="0.2" stroke-width="0.1"/>
<path d="M277.437 190.373L288.522 215.569L287.004 219.949L277.437 190.373Z" fill="#9D805A"/>
<path d="M277.437 190.373L288.522 215.569L287.004 219.949L277.437 190.373Z" stroke="#007045" stroke-width="0.1"/>
<path d="M277.437 190.373L288.522 215.569L287.004 219.949L277.437 190.373Z" stroke="black" stroke-opacity="0.2" stroke-width="0.1"/>
<path d="M309.324 226.271L280.5 238.498L279.178 242.942L309.324 226.271Z" fill="#9D805A"/>
<path d="M309.324 226.271L280.5 238.498L279.178 242.942L309.324 226.271Z" stroke="#007045" stroke-width="0.1"/>
<path d="M309.324 226.271L280.5 238.498L279.178 242.942L309.324 226.271Z" stroke="black" stroke-opacity="0.2" stroke-width="0.1"/>
<path d="M264.191 211.616L280.324 238.451L278.781 242.823L264.191 211.616Z" fill="#9D805A"/>
<path d="M264.191 211.616L280.324 238.451L278.781 242.823L264.191 211.616Z" stroke="#007045" stroke-width="0.1"/>
<path d="M264.191 211.616L280.324 238.451L278.781 242.823L264.191 211.616Z" stroke="black" stroke-opacity="0.2" stroke-width="0.1"/>
<path d="M304.764 259.477L268.569 275.267L266.88 280.935L304.764 259.477Z" fill="#9D805A"/>
<path d="M304.764 259.477L268.569 275.267L266.88 280.935L304.764 259.477Z" stroke="#007045" stroke-width="0.1"/>
<path d="M304.764 259.477L268.569 275.267L266.88 280.935L304.764 259.477Z" stroke="black" stroke-opacity="0.2" stroke-width="0.1"/>
<path d="M248.362 241.16L268.363 275.209L266.398 280.788L248.362 241.16Z" fill="#9D805A"/>
<path d="M248.362 241.16L268.363 275.209L266.398 280.788L248.362 241.16Z" stroke="#007045" stroke-width="0.1"/>
<path d="M248.362 241.16L268.363 275.209L266.398 280.788L248.362 241.16Z" stroke="black" stroke-opacity="0.2" stroke-width="0.1"/>
<defs>
<filter id="filter0_dddd_132_158" x="-36.1128" y="12.479" width="284.379" height="376.969" filterUnits="userSpaceOnUse" color-interpolation-filters="sRGB">
<feFlood flood-opacity="0" result="BackgroundImageFix"/>
<feColorMatrix in="SourceAlpha" type="matrix" values="0 0 0 0 0 0 0 0 0 0 0 0 0 0 0 0 0 0 127 0" result="hardAlpha"/>
<feOffset dx="-1" dy="3"/>
<feGaussianBlur stdDeviation="3.5"/>
<feColorMatrix type="matrix" values="0 0 0 0 0 0 0 0 0 0 0 0 0 0 0 0 0 0 0.05 0"/>
<feBlend mode="normal" in2="BackgroundImageFix" result="effect1_dropShadow_132_158"/>
<feColorMatrix in="SourceAlpha" type="matrix" values="0 0 0 0 0 0 0 0 0 0 0 0 0 0 0 0 0 0 127 0" result="hardAlpha"/>
<feOffset dx="-5" dy="12"/>
<feGaussianBlur stdDeviation="6.5"/>
<feColorMatrix type="matrix" values="0 0 0 0 0 0 0 0 0 0 0 0 0 0 0 0 0 0 0.04 0"/>
<feBlend mode="normal" in2="effect1_dropShadow_132_158" result="effect2_dropShadow_132_158"/>
<feColorMatrix in="SourceAlpha" type="matrix" values="0 0 0 0 0 0 0 0 0 0 0 0 0 0 0 0 0 0 127 0" result="hardAlpha"/>
<feOffset dx="-12" dy="26"/>
<feGaussianBlur stdDeviation="8.5"/>
<feColorMatrix type="matrix" values="0 0 0 0 0 0 0 0 0 0 0 0 0 0 0 0 0 0 0.03 0"/>
<feBlend mode="normal" in2="effect2_dropShadow_132_158" result="effect3_dropShadow_132_158"/>
<feColorMatrix in="SourceAlpha" type="matrix" values="0 0 0 0 0 0 0 0 0 0 0 0 0 0 0 0 0 0 127 0" result="hardAlpha"/>
<feOffset dx="-21" dy="47"/>
<feGaussianBlur stdDeviation="10"/>
<feColorMatrix type="matrix" values="0 0 0 0 0 0 0 0 0 0 0 0 0 0 0 0 0 0 0.01 0"/>
<feBlend mode="normal" in2="effect3_dropShadow_132_158" result="effect4_dropShadow_132_158"/>
<feBlend mode="normal" in="SourceGraphic" in2="effect4_dropShadow_132_158" result="shape"/>
</filter>
</defs>
</svg>
