<svg width="20" height="20" viewBox="0 0 20 20" fill="none" xmlns="http://www.w3.org/2000/svg">
<path fill-rule="evenodd" clip-rule="evenodd" d="M10.9623 2.80038C10.4031 2.50849 9.64522 2.50399 9.0815 2.79513C6.92069 3.91108 4.9608 5.1906 3.24332 6.60978C2.97773 6.82924 2.78925 7.14814 2.79247 7.52351C2.79567 7.89735 2.98799 8.21199 3.25196 8.42783C4.95517 9.82048 6.91668 11.1012 9.03792 12.2083C9.59719 12.5002 10.355 12.5047 10.9187 12.2135C13.0795 11.0976 15.0394 9.81805 16.7569 8.39888C17.0225 8.17942 17.211 7.86051 17.2078 7.48514C17.2046 7.11131 17.0123 6.79667 16.7483 6.58082C15.0451 5.18818 13.0836 3.9075 10.9623 2.80038ZM9.65508 3.90575C9.8548 3.80261 10.1829 3.80359 10.384 3.90853C12.4084 4.96513 14.2737 6.18071 15.8898 7.49369C14.2641 8.82779 12.4043 10.0394 10.3452 11.1029C10.1454 11.206 9.81736 11.2051 9.61629 11.1001C7.59184 10.0435 5.7265 8.82794 4.11048 7.51497C5.73615 6.18087 7.59594 4.96921 9.65508 3.90575Z" fill="black"/>
<path d="M17.6643 10.5819C17.8471 10.8747 17.7579 11.2602 17.4651 11.443L12.3758 14.6204C11.6852 15.0516 10.8283 15.2509 10 15.251C9.17177 15.251 8.31489 15.0518 7.62417 14.6207L2.59057 11.4792C2.29774 11.2965 2.2085 10.911 2.39126 10.6181C2.57401 10.3253 2.95955 10.2361 3.25238 10.4188L8.28598 13.5603C8.73944 13.8433 9.35544 14.001 9.99997 14.001C10.6445 14.0009 11.2604 13.8431 11.7138 13.5601L16.8032 10.3827C17.096 10.1999 17.4815 10.2891 17.6643 10.5819Z" fill="black"/>
<path d="M17.6643 13.7107C17.8471 14.0035 17.758 14.3891 17.4652 14.5719L13.0578 17.3243C12.1764 17.8747 11.0739 18.1336 10 18.1337C8.92609 18.1338 7.82354 17.8749 6.94205 17.3247L2.5905 14.6081C2.2977 14.4254 2.20851 14.0398 2.3913 13.747C2.57409 13.4542 2.95963 13.365 3.25244 13.5478L7.60399 16.2643C8.24817 16.6664 9.10978 16.8838 9.99994 16.8837C10.8901 16.8837 11.7516 16.6662 12.3957 16.264L16.8031 13.5117C17.0959 13.3288 17.4814 13.4179 17.6643 13.7107Z" fill="black"/>
</svg>
